<svg xmlns="http://www.w3.org/2000/svg" width="1476.61" height="1308.408" viewBox="0 0 1476.61 1308.408"><g transform="translate(1170.209 152.012)"><g transform="translate(-1170.209 -127.131)" style="mix-blend-mode:multiply;isolation:isolate"><path d="M-1166.3,531.992c-21.073-29.126-33.162-63.1-35.5-100.576-3.416-54.944,14.841-114.9,51.415-168.834,58.359-86.05,176.4-194.149,315.765-289.16,152.2-103.78,302.806-174.505,424.047-199.157l.435,2.053-.435-2.053c106.442-21.64,200.139,27.566,270.911,142.219C-27.167,98.73,16.856,307.452,33.97,450.458c20.041,167.41,12.875,333.833-18.715,434.31-38.612,122.87-149.174,188.184-275.129,162.518C-430.79,1012.474-957.849,696.37-1119.866,578.12A208.833,208.833,0,0,1-1166.3,531.992Z" transform="translate(1202.209 230.712)" fill="#009ec1"/></g><g transform="translate(-1066.277 -152.012)" style="mix-blend-mode:multiply;isolation:isolate"><path d="M-779.087,990.482c-38.239,2.362-75.992-5.776-111.588-24.335-52.181-27.225-97.039-76.1-126.313-137.639-46.7-98.186-80.784-260.531-91.162-434.269-11.348-189.753,6.688-359.943,50.767-479.2l2.117.749-2.117-.749c38.7-104.7,135.268-159.359,279.133-158.024,228.7,2.1,444,78.452,584.334,142.143C-29.627-26.293,118.8,71.443,193.432,154.219c91.269,101.21,90.29,233.512-2.448,329.222C65.155,613.324-513.989,899.1-711.317,975.352A226.506,226.506,0,0,1-779.087,990.482Z" transform="translate(1111.462 243.012)" fill="#006291"/></g></g></svg>